<mxfile host="app.diagrams.net" agent="Mozilla/5.0 (Windows NT 10.0; Win64; x64) AppleWebKit/537.36 (KHTML, like Gecko) Chrome/139.0.0.0 Safari/537.36" version="28.2.2">
  <diagram name="Page-1" id="Okyo70iiBeOFteqgniGM">
    <mxGraphModel dx="2934" dy="2416" grid="1" gridSize="10" guides="1" tooltips="1" connect="1" arrows="1" fold="1" page="1" pageScale="1" pageWidth="850" pageHeight="1100" math="0" shadow="0">
      <root>
        <mxCell id="0" />
        <mxCell id="1" parent="0" />
        <mxCell id="xxZGd4Kee1xpuVlzAXk--7" style="edgeStyle=orthogonalEdgeStyle;rounded=0;orthogonalLoop=1;jettySize=auto;html=1;exitX=0;exitY=0.5;exitDx=0;exitDy=0;entryX=0.5;entryY=0;entryDx=0;entryDy=0;" edge="1" parent="1" source="Ht5dXqHMME09dJcP722R-1" target="xxZGd4Kee1xpuVlzAXk--6">
          <mxGeometry relative="1" as="geometry" />
        </mxCell>
        <mxCell id="xxZGd4Kee1xpuVlzAXk--9" style="edgeStyle=orthogonalEdgeStyle;rounded=0;orthogonalLoop=1;jettySize=auto;html=1;exitX=0;exitY=0;exitDx=0;exitDy=0;entryX=1;entryY=1;entryDx=0;entryDy=0;" edge="1" parent="1" source="Ht5dXqHMME09dJcP722R-1" target="xxZGd4Kee1xpuVlzAXk--8">
          <mxGeometry relative="1" as="geometry" />
        </mxCell>
        <mxCell id="xxZGd4Kee1xpuVlzAXk--11" style="edgeStyle=orthogonalEdgeStyle;rounded=0;orthogonalLoop=1;jettySize=auto;html=1;exitX=0.25;exitY=1;exitDx=0;exitDy=0;" edge="1" parent="1" source="Ht5dXqHMME09dJcP722R-1" target="xxZGd4Kee1xpuVlzAXk--10">
          <mxGeometry relative="1" as="geometry" />
        </mxCell>
        <mxCell id="xxZGd4Kee1xpuVlzAXk--13" style="edgeStyle=orthogonalEdgeStyle;rounded=0;orthogonalLoop=1;jettySize=auto;html=1;exitX=0.5;exitY=0;exitDx=0;exitDy=0;" edge="1" parent="1" source="Ht5dXqHMME09dJcP722R-1" target="xxZGd4Kee1xpuVlzAXk--12">
          <mxGeometry relative="1" as="geometry" />
        </mxCell>
        <mxCell id="xxZGd4Kee1xpuVlzAXk--15" style="edgeStyle=orthogonalEdgeStyle;rounded=0;orthogonalLoop=1;jettySize=auto;html=1;exitX=0.75;exitY=1;exitDx=0;exitDy=0;" edge="1" parent="1" source="Ht5dXqHMME09dJcP722R-1" target="xxZGd4Kee1xpuVlzAXk--14">
          <mxGeometry relative="1" as="geometry" />
        </mxCell>
        <mxCell id="Ht5dXqHMME09dJcP722R-1" value="Patient" style="rounded=0;whiteSpace=wrap;html=1;" parent="1" vertex="1">
          <mxGeometry x="-70" y="290" width="110" height="50" as="geometry" />
        </mxCell>
        <mxCell id="xxZGd4Kee1xpuVlzAXk--17" style="edgeStyle=orthogonalEdgeStyle;rounded=0;orthogonalLoop=1;jettySize=auto;html=1;exitX=0;exitY=0;exitDx=0;exitDy=0;" edge="1" parent="1" source="xxZGd4Kee1xpuVlzAXk--1" target="xxZGd4Kee1xpuVlzAXk--16">
          <mxGeometry relative="1" as="geometry" />
        </mxCell>
        <mxCell id="xxZGd4Kee1xpuVlzAXk--21" style="edgeStyle=orthogonalEdgeStyle;rounded=0;orthogonalLoop=1;jettySize=auto;html=1;exitX=1;exitY=0;exitDx=0;exitDy=0;entryX=0.5;entryY=1;entryDx=0;entryDy=0;" edge="1" parent="1" source="xxZGd4Kee1xpuVlzAXk--1" target="xxZGd4Kee1xpuVlzAXk--20">
          <mxGeometry relative="1" as="geometry" />
        </mxCell>
        <mxCell id="xxZGd4Kee1xpuVlzAXk--23" style="edgeStyle=orthogonalEdgeStyle;rounded=0;orthogonalLoop=1;jettySize=auto;html=1;exitX=0;exitY=0.25;exitDx=0;exitDy=0;entryX=0.647;entryY=0.958;entryDx=0;entryDy=0;entryPerimeter=0;" edge="1" parent="1" source="xxZGd4Kee1xpuVlzAXk--1" target="xxZGd4Kee1xpuVlzAXk--22">
          <mxGeometry relative="1" as="geometry">
            <mxPoint x="60" as="targetPoint" />
          </mxGeometry>
        </mxCell>
        <mxCell id="xxZGd4Kee1xpuVlzAXk--25" style="edgeStyle=orthogonalEdgeStyle;rounded=0;orthogonalLoop=1;jettySize=auto;html=1;exitX=1;exitY=0.25;exitDx=0;exitDy=0;" edge="1" parent="1" source="xxZGd4Kee1xpuVlzAXk--1" target="xxZGd4Kee1xpuVlzAXk--24">
          <mxGeometry relative="1" as="geometry" />
        </mxCell>
        <mxCell id="xxZGd4Kee1xpuVlzAXk--54" style="edgeStyle=orthogonalEdgeStyle;rounded=0;orthogonalLoop=1;jettySize=auto;html=1;exitX=1;exitY=1;exitDx=0;exitDy=0;" edge="1" parent="1" source="xxZGd4Kee1xpuVlzAXk--1" target="xxZGd4Kee1xpuVlzAXk--53">
          <mxGeometry relative="1" as="geometry" />
        </mxCell>
        <mxCell id="xxZGd4Kee1xpuVlzAXk--57" style="edgeStyle=orthogonalEdgeStyle;rounded=0;orthogonalLoop=1;jettySize=auto;html=1;exitX=0.5;exitY=1;exitDx=0;exitDy=0;" edge="1" parent="1" source="xxZGd4Kee1xpuVlzAXk--1" target="xxZGd4Kee1xpuVlzAXk--56">
          <mxGeometry relative="1" as="geometry" />
        </mxCell>
        <mxCell id="xxZGd4Kee1xpuVlzAXk--71" style="edgeStyle=orthogonalEdgeStyle;rounded=0;orthogonalLoop=1;jettySize=auto;html=1;exitX=0.75;exitY=1;exitDx=0;exitDy=0;entryX=0;entryY=0.5;entryDx=0;entryDy=0;" edge="1" parent="1" source="xxZGd4Kee1xpuVlzAXk--1" target="xxZGd4Kee1xpuVlzAXk--68">
          <mxGeometry relative="1" as="geometry" />
        </mxCell>
        <mxCell id="xxZGd4Kee1xpuVlzAXk--1" value="Doctors" style="rounded=0;whiteSpace=wrap;html=1;" vertex="1" parent="1">
          <mxGeometry x="170" y="120" width="120" height="60" as="geometry" />
        </mxCell>
        <mxCell id="xxZGd4Kee1xpuVlzAXk--27" style="edgeStyle=orthogonalEdgeStyle;rounded=0;orthogonalLoop=1;jettySize=auto;html=1;exitX=0.5;exitY=1;exitDx=0;exitDy=0;" edge="1" parent="1" source="xxZGd4Kee1xpuVlzAXk--2" target="xxZGd4Kee1xpuVlzAXk--26">
          <mxGeometry relative="1" as="geometry" />
        </mxCell>
        <mxCell id="xxZGd4Kee1xpuVlzAXk--29" style="edgeStyle=orthogonalEdgeStyle;rounded=0;orthogonalLoop=1;jettySize=auto;html=1;exitX=0.5;exitY=1;exitDx=0;exitDy=0;entryX=0.5;entryY=0;entryDx=0;entryDy=0;" edge="1" parent="1" source="xxZGd4Kee1xpuVlzAXk--2" target="xxZGd4Kee1xpuVlzAXk--26">
          <mxGeometry relative="1" as="geometry">
            <mxPoint x="230" y="450" as="targetPoint" />
          </mxGeometry>
        </mxCell>
        <mxCell id="xxZGd4Kee1xpuVlzAXk--30" style="edgeStyle=orthogonalEdgeStyle;rounded=0;orthogonalLoop=1;jettySize=auto;html=1;exitX=0;exitY=1;exitDx=0;exitDy=0;" edge="1" parent="1" source="xxZGd4Kee1xpuVlzAXk--2" target="xxZGd4Kee1xpuVlzAXk--28">
          <mxGeometry relative="1" as="geometry" />
        </mxCell>
        <mxCell id="xxZGd4Kee1xpuVlzAXk--32" style="edgeStyle=orthogonalEdgeStyle;rounded=0;orthogonalLoop=1;jettySize=auto;html=1;exitX=0.75;exitY=1;exitDx=0;exitDy=0;" edge="1" parent="1" source="xxZGd4Kee1xpuVlzAXk--2" target="xxZGd4Kee1xpuVlzAXk--31">
          <mxGeometry relative="1" as="geometry" />
        </mxCell>
        <mxCell id="xxZGd4Kee1xpuVlzAXk--58" style="edgeStyle=orthogonalEdgeStyle;rounded=0;orthogonalLoop=1;jettySize=auto;html=1;exitX=0.5;exitY=0;exitDx=0;exitDy=0;" edge="1" parent="1" source="xxZGd4Kee1xpuVlzAXk--2">
          <mxGeometry relative="1" as="geometry">
            <mxPoint x="230" y="300" as="targetPoint" />
          </mxGeometry>
        </mxCell>
        <mxCell id="xxZGd4Kee1xpuVlzAXk--61" style="edgeStyle=orthogonalEdgeStyle;rounded=0;orthogonalLoop=1;jettySize=auto;html=1;exitX=1;exitY=0;exitDx=0;exitDy=0;entryX=0;entryY=0.5;entryDx=0;entryDy=0;" edge="1" parent="1" source="xxZGd4Kee1xpuVlzAXk--2" target="xxZGd4Kee1xpuVlzAXk--60">
          <mxGeometry relative="1" as="geometry" />
        </mxCell>
        <mxCell id="xxZGd4Kee1xpuVlzAXk--2" value="Departments" style="rounded=0;whiteSpace=wrap;html=1;" vertex="1" parent="1">
          <mxGeometry x="170" y="360" width="120" height="60" as="geometry" />
        </mxCell>
        <mxCell id="xxZGd4Kee1xpuVlzAXk--36" style="edgeStyle=orthogonalEdgeStyle;rounded=0;orthogonalLoop=1;jettySize=auto;html=1;exitX=0.25;exitY=0;exitDx=0;exitDy=0;" edge="1" parent="1" source="xxZGd4Kee1xpuVlzAXk--3" target="xxZGd4Kee1xpuVlzAXk--35">
          <mxGeometry relative="1" as="geometry" />
        </mxCell>
        <mxCell id="xxZGd4Kee1xpuVlzAXk--38" style="edgeStyle=orthogonalEdgeStyle;rounded=0;orthogonalLoop=1;jettySize=auto;html=1;exitX=1;exitY=0;exitDx=0;exitDy=0;" edge="1" parent="1" source="xxZGd4Kee1xpuVlzAXk--3" target="xxZGd4Kee1xpuVlzAXk--37">
          <mxGeometry relative="1" as="geometry" />
        </mxCell>
        <mxCell id="xxZGd4Kee1xpuVlzAXk--40" style="edgeStyle=orthogonalEdgeStyle;rounded=0;orthogonalLoop=1;jettySize=auto;html=1;exitX=1;exitY=0.25;exitDx=0;exitDy=0;entryX=0;entryY=0.5;entryDx=0;entryDy=0;" edge="1" parent="1" source="xxZGd4Kee1xpuVlzAXk--3" target="xxZGd4Kee1xpuVlzAXk--39">
          <mxGeometry relative="1" as="geometry" />
        </mxCell>
        <mxCell id="xxZGd4Kee1xpuVlzAXk--55" style="edgeStyle=orthogonalEdgeStyle;rounded=0;orthogonalLoop=1;jettySize=auto;html=1;exitX=0.5;exitY=1;exitDx=0;exitDy=0;entryX=1;entryY=0.5;entryDx=0;entryDy=0;" edge="1" parent="1" source="xxZGd4Kee1xpuVlzAXk--3" target="xxZGd4Kee1xpuVlzAXk--53">
          <mxGeometry relative="1" as="geometry" />
        </mxCell>
        <mxCell id="xxZGd4Kee1xpuVlzAXk--3" value="Appointments" style="rounded=0;whiteSpace=wrap;html=1;" vertex="1" parent="1">
          <mxGeometry x="710" y="90" width="120" height="60" as="geometry" />
        </mxCell>
        <mxCell id="xxZGd4Kee1xpuVlzAXk--42" style="edgeStyle=orthogonalEdgeStyle;rounded=0;orthogonalLoop=1;jettySize=auto;html=1;exitX=0.5;exitY=1;exitDx=0;exitDy=0;entryX=0.5;entryY=0;entryDx=0;entryDy=0;" edge="1" parent="1" source="xxZGd4Kee1xpuVlzAXk--4" target="xxZGd4Kee1xpuVlzAXk--41">
          <mxGeometry relative="1" as="geometry" />
        </mxCell>
        <mxCell id="xxZGd4Kee1xpuVlzAXk--45" style="edgeStyle=orthogonalEdgeStyle;rounded=0;orthogonalLoop=1;jettySize=auto;html=1;exitX=0;exitY=1;exitDx=0;exitDy=0;" edge="1" parent="1" source="xxZGd4Kee1xpuVlzAXk--4" target="xxZGd4Kee1xpuVlzAXk--44">
          <mxGeometry relative="1" as="geometry" />
        </mxCell>
        <mxCell id="xxZGd4Kee1xpuVlzAXk--46" style="edgeStyle=orthogonalEdgeStyle;rounded=0;orthogonalLoop=1;jettySize=auto;html=1;exitX=1;exitY=1;exitDx=0;exitDy=0;" edge="1" parent="1" source="xxZGd4Kee1xpuVlzAXk--4" target="xxZGd4Kee1xpuVlzAXk--43">
          <mxGeometry relative="1" as="geometry" />
        </mxCell>
        <mxCell id="xxZGd4Kee1xpuVlzAXk--67" style="edgeStyle=orthogonalEdgeStyle;rounded=0;orthogonalLoop=1;jettySize=auto;html=1;exitX=0;exitY=0;exitDx=0;exitDy=0;entryX=1;entryY=1;entryDx=0;entryDy=0;" edge="1" parent="1" source="xxZGd4Kee1xpuVlzAXk--4" target="xxZGd4Kee1xpuVlzAXk--65">
          <mxGeometry relative="1" as="geometry" />
        </mxCell>
        <mxCell id="xxZGd4Kee1xpuVlzAXk--70" style="edgeStyle=orthogonalEdgeStyle;rounded=0;orthogonalLoop=1;jettySize=auto;html=1;exitX=0;exitY=0.5;exitDx=0;exitDy=0;" edge="1" parent="1" source="xxZGd4Kee1xpuVlzAXk--4" target="xxZGd4Kee1xpuVlzAXk--68">
          <mxGeometry relative="1" as="geometry" />
        </mxCell>
        <mxCell id="xxZGd4Kee1xpuVlzAXk--4" value="Prescriptions" style="rounded=0;whiteSpace=wrap;html=1;" vertex="1" parent="1">
          <mxGeometry x="560" y="390" width="120" height="60" as="geometry" />
        </mxCell>
        <mxCell id="xxZGd4Kee1xpuVlzAXk--48" style="edgeStyle=orthogonalEdgeStyle;rounded=0;orthogonalLoop=1;jettySize=auto;html=1;exitX=1;exitY=0.25;exitDx=0;exitDy=0;entryX=0;entryY=0.5;entryDx=0;entryDy=0;" edge="1" parent="1" source="xxZGd4Kee1xpuVlzAXk--5" target="xxZGd4Kee1xpuVlzAXk--47">
          <mxGeometry relative="1" as="geometry" />
        </mxCell>
        <mxCell id="xxZGd4Kee1xpuVlzAXk--62" style="edgeStyle=orthogonalEdgeStyle;rounded=0;orthogonalLoop=1;jettySize=auto;html=1;exitX=0.25;exitY=0;exitDx=0;exitDy=0;entryX=1;entryY=0.5;entryDx=0;entryDy=0;" edge="1" parent="1" source="xxZGd4Kee1xpuVlzAXk--5" target="xxZGd4Kee1xpuVlzAXk--60">
          <mxGeometry relative="1" as="geometry" />
        </mxCell>
        <mxCell id="xxZGd4Kee1xpuVlzAXk--5" value="Hospital rooms" style="rounded=0;whiteSpace=wrap;html=1;" vertex="1" parent="1">
          <mxGeometry x="880" y="350" width="120" height="60" as="geometry" />
        </mxCell>
        <mxCell id="xxZGd4Kee1xpuVlzAXk--6" value="patient_id" style="ellipse;whiteSpace=wrap;html=1;" vertex="1" parent="1">
          <mxGeometry x="-290" y="440" width="120" height="60" as="geometry" />
        </mxCell>
        <mxCell id="xxZGd4Kee1xpuVlzAXk--8" value="name" style="ellipse;whiteSpace=wrap;html=1;" vertex="1" parent="1">
          <mxGeometry x="-310" y="110" width="120" height="70" as="geometry" />
        </mxCell>
        <mxCell id="xxZGd4Kee1xpuVlzAXk--10" value="birthdates" style="ellipse;whiteSpace=wrap;html=1;" vertex="1" parent="1">
          <mxGeometry x="-140" y="510" width="120" height="80" as="geometry" />
        </mxCell>
        <mxCell id="xxZGd4Kee1xpuVlzAXk--12" value="adresses" style="ellipse;whiteSpace=wrap;html=1;" vertex="1" parent="1">
          <mxGeometry x="-70" y="30" width="120" height="80" as="geometry" />
        </mxCell>
        <mxCell id="xxZGd4Kee1xpuVlzAXk--14" value="phone numbers" style="ellipse;whiteSpace=wrap;html=1;" vertex="1" parent="1">
          <mxGeometry x="-425" y="230" width="120" height="80" as="geometry" />
        </mxCell>
        <mxCell id="xxZGd4Kee1xpuVlzAXk--16" value="doctor id" style="ellipse;whiteSpace=wrap;html=1;" vertex="1" parent="1">
          <mxGeometry x="100" y="-100" width="120" height="80" as="geometry" />
        </mxCell>
        <mxCell id="xxZGd4Kee1xpuVlzAXk--18" value="name" style="ellipse;whiteSpace=wrap;html=1;" vertex="1" parent="1">
          <mxGeometry x="240" y="-140" width="120" height="80" as="geometry" />
        </mxCell>
        <mxCell id="xxZGd4Kee1xpuVlzAXk--19" style="edgeStyle=orthogonalEdgeStyle;rounded=0;orthogonalLoop=1;jettySize=auto;html=1;exitX=0.75;exitY=0;exitDx=0;exitDy=0;entryX=0.5;entryY=1.125;entryDx=0;entryDy=0;entryPerimeter=0;" edge="1" parent="1" source="xxZGd4Kee1xpuVlzAXk--1" target="xxZGd4Kee1xpuVlzAXk--18">
          <mxGeometry relative="1" as="geometry" />
        </mxCell>
        <mxCell id="xxZGd4Kee1xpuVlzAXk--20" value="specializtions" style="ellipse;whiteSpace=wrap;html=1;" vertex="1" parent="1">
          <mxGeometry x="370" y="-130" width="120" height="80" as="geometry" />
        </mxCell>
        <mxCell id="xxZGd4Kee1xpuVlzAXk--22" value="phone numbers" style="ellipse;whiteSpace=wrap;html=1;" vertex="1" parent="1">
          <mxGeometry x="-20" y="-90" width="120" height="80" as="geometry" />
        </mxCell>
        <mxCell id="xxZGd4Kee1xpuVlzAXk--24" value="office locations" style="ellipse;whiteSpace=wrap;html=1;" vertex="1" parent="1">
          <mxGeometry x="480" y="-50" width="120" height="80" as="geometry" />
        </mxCell>
        <mxCell id="xxZGd4Kee1xpuVlzAXk--26" value="department code" style="ellipse;whiteSpace=wrap;html=1;" vertex="1" parent="1">
          <mxGeometry x="170" y="490" width="120" height="80" as="geometry" />
        </mxCell>
        <mxCell id="xxZGd4Kee1xpuVlzAXk--28" value="name" style="ellipse;whiteSpace=wrap;html=1;" vertex="1" parent="1">
          <mxGeometry x="30" y="530" width="120" height="80" as="geometry" />
        </mxCell>
        <mxCell id="xxZGd4Kee1xpuVlzAXk--31" value="locations" style="ellipse;whiteSpace=wrap;html=1;" vertex="1" parent="1">
          <mxGeometry x="310" y="580" width="120" height="80" as="geometry" />
        </mxCell>
        <mxCell id="xxZGd4Kee1xpuVlzAXk--33" value="appointment id" style="ellipse;whiteSpace=wrap;html=1;" vertex="1" parent="1">
          <mxGeometry x="750" y="-110" width="120" height="80" as="geometry" />
        </mxCell>
        <mxCell id="xxZGd4Kee1xpuVlzAXk--34" style="edgeStyle=orthogonalEdgeStyle;rounded=0;orthogonalLoop=1;jettySize=auto;html=1;exitX=0.5;exitY=0;exitDx=0;exitDy=0;entryX=0.417;entryY=1;entryDx=0;entryDy=0;entryPerimeter=0;" edge="1" parent="1" source="xxZGd4Kee1xpuVlzAXk--3" target="xxZGd4Kee1xpuVlzAXk--33">
          <mxGeometry relative="1" as="geometry" />
        </mxCell>
        <mxCell id="xxZGd4Kee1xpuVlzAXk--35" value="&#xa;date/time&#xa;&#xa;" style="ellipse;whiteSpace=wrap;html=1;" vertex="1" parent="1">
          <mxGeometry x="610" y="-110" width="120" height="80" as="geometry" />
        </mxCell>
        <mxCell id="xxZGd4Kee1xpuVlzAXk--37" value="&#xa;purpose of visit&#xa;&#xa;" style="ellipse;whiteSpace=wrap;html=1;" vertex="1" parent="1">
          <mxGeometry x="920" y="-80" width="120" height="80" as="geometry" />
        </mxCell>
        <mxCell id="xxZGd4Kee1xpuVlzAXk--39" value="&#xa;notes&#xa;&#xa;" style="ellipse;whiteSpace=wrap;html=1;" vertex="1" parent="1">
          <mxGeometry x="980" y="60" width="120" height="80" as="geometry" />
        </mxCell>
        <mxCell id="xxZGd4Kee1xpuVlzAXk--41" value="&#xa;prescription ID&#xa;&#xa;" style="ellipse;whiteSpace=wrap;html=1;" vertex="1" parent="1">
          <mxGeometry x="590" y="560" width="120" height="80" as="geometry" />
        </mxCell>
        <mxCell id="xxZGd4Kee1xpuVlzAXk--43" value="&#xa;instructions&#xa;&#xa;" style="ellipse;whiteSpace=wrap;html=1;" vertex="1" parent="1">
          <mxGeometry x="740" y="550" width="140" height="80" as="geometry" />
        </mxCell>
        <mxCell id="xxZGd4Kee1xpuVlzAXk--44" value="&#xa;dosage&#xa;&#xa;" style="ellipse;whiteSpace=wrap;html=1;" vertex="1" parent="1">
          <mxGeometry x="470" y="610" width="120" height="80" as="geometry" />
        </mxCell>
        <mxCell id="xxZGd4Kee1xpuVlzAXk--49" style="edgeStyle=orthogonalEdgeStyle;rounded=0;orthogonalLoop=1;jettySize=auto;html=1;exitX=0;exitY=0.5;exitDx=0;exitDy=0;entryX=1;entryY=0.25;entryDx=0;entryDy=0;" edge="1" parent="1" source="xxZGd4Kee1xpuVlzAXk--47" target="xxZGd4Kee1xpuVlzAXk--5">
          <mxGeometry relative="1" as="geometry" />
        </mxCell>
        <mxCell id="xxZGd4Kee1xpuVlzAXk--47" value="&#xa;room number&#xa;&#xa;" style="ellipse;whiteSpace=wrap;html=1;" vertex="1" parent="1">
          <mxGeometry x="1100" y="320" width="120" height="80" as="geometry" />
        </mxCell>
        <mxCell id="xxZGd4Kee1xpuVlzAXk--50" value="has" style="rhombus;whiteSpace=wrap;html=1;" vertex="1" parent="1">
          <mxGeometry x="310" y="180" width="80" height="80" as="geometry" />
        </mxCell>
        <mxCell id="xxZGd4Kee1xpuVlzAXk--51" style="edgeStyle=orthogonalEdgeStyle;rounded=0;orthogonalLoop=1;jettySize=auto;html=1;exitX=1;exitY=0.25;exitDx=0;exitDy=0;entryX=0.135;entryY=0.692;entryDx=0;entryDy=0;entryPerimeter=0;" edge="1" parent="1" source="Ht5dXqHMME09dJcP722R-1" target="xxZGd4Kee1xpuVlzAXk--50">
          <mxGeometry relative="1" as="geometry" />
        </mxCell>
        <mxCell id="xxZGd4Kee1xpuVlzAXk--52" style="edgeStyle=orthogonalEdgeStyle;rounded=0;orthogonalLoop=1;jettySize=auto;html=1;exitX=0;exitY=1;exitDx=0;exitDy=0;entryX=0.925;entryY=0.402;entryDx=0;entryDy=0;entryPerimeter=0;" edge="1" parent="1" source="xxZGd4Kee1xpuVlzAXk--3" target="xxZGd4Kee1xpuVlzAXk--50">
          <mxGeometry relative="1" as="geometry" />
        </mxCell>
        <mxCell id="xxZGd4Kee1xpuVlzAXk--53" value="threats" style="rhombus;whiteSpace=wrap;html=1;" vertex="1" parent="1">
          <mxGeometry x="430" y="220" width="80" height="80" as="geometry" />
        </mxCell>
        <mxCell id="xxZGd4Kee1xpuVlzAXk--56" value="works in" style="rhombus;whiteSpace=wrap;html=1;" vertex="1" parent="1">
          <mxGeometry x="190" y="220" width="80" height="80" as="geometry" />
        </mxCell>
        <mxCell id="xxZGd4Kee1xpuVlzAXk--63" style="edgeStyle=orthogonalEdgeStyle;rounded=0;orthogonalLoop=1;jettySize=auto;html=1;exitX=1;exitY=0.5;exitDx=0;exitDy=0;entryX=0.25;entryY=0;entryDx=0;entryDy=0;" edge="1" parent="1" source="xxZGd4Kee1xpuVlzAXk--60" target="xxZGd4Kee1xpuVlzAXk--5">
          <mxGeometry relative="1" as="geometry" />
        </mxCell>
        <mxCell id="xxZGd4Kee1xpuVlzAXk--64" style="edgeStyle=orthogonalEdgeStyle;rounded=0;orthogonalLoop=1;jettySize=auto;html=1;exitX=0;exitY=0.5;exitDx=0;exitDy=0;entryX=1;entryY=0;entryDx=0;entryDy=0;" edge="1" parent="1" source="xxZGd4Kee1xpuVlzAXk--60" target="xxZGd4Kee1xpuVlzAXk--2">
          <mxGeometry relative="1" as="geometry" />
        </mxCell>
        <mxCell id="xxZGd4Kee1xpuVlzAXk--60" value="has" style="rhombus;whiteSpace=wrap;html=1;" vertex="1" parent="1">
          <mxGeometry x="550" y="280" width="80" height="80" as="geometry" />
        </mxCell>
        <mxCell id="xxZGd4Kee1xpuVlzAXk--65" value="receives" style="rhombus;whiteSpace=wrap;html=1;" vertex="1" parent="1">
          <mxGeometry x="345" y="240" width="80" height="80" as="geometry" />
        </mxCell>
        <mxCell id="xxZGd4Kee1xpuVlzAXk--66" style="edgeStyle=orthogonalEdgeStyle;rounded=0;orthogonalLoop=1;jettySize=auto;html=1;exitX=1;exitY=0.5;exitDx=0;exitDy=0;entryX=0.168;entryY=0.682;entryDx=0;entryDy=0;entryPerimeter=0;" edge="1" parent="1" source="Ht5dXqHMME09dJcP722R-1" target="xxZGd4Kee1xpuVlzAXk--65">
          <mxGeometry relative="1" as="geometry" />
        </mxCell>
        <mxCell id="xxZGd4Kee1xpuVlzAXk--68" value="prescribes" style="rhombus;whiteSpace=wrap;html=1;" vertex="1" parent="1">
          <mxGeometry x="400" y="370" width="80" height="80" as="geometry" />
        </mxCell>
        <mxCell id="xxZGd4Kee1xpuVlzAXk--69" style="edgeStyle=orthogonalEdgeStyle;rounded=0;orthogonalLoop=1;jettySize=auto;html=1;exitX=0.25;exitY=0;exitDx=0;exitDy=0;entryX=0.333;entryY=-0.03;entryDx=0;entryDy=0;entryPerimeter=0;" edge="1" parent="1" source="xxZGd4Kee1xpuVlzAXk--4" target="xxZGd4Kee1xpuVlzAXk--4">
          <mxGeometry relative="1" as="geometry" />
        </mxCell>
      </root>
    </mxGraphModel>
  </diagram>
</mxfile>
